<?xml version="1.0" encoding="UTF-8" standalone="no"?>
<!DOCTYPE svg PUBLIC "-//W3C//DTD SVG 1.1//EN" "http://www.w3.org/Graphics/SVG/1.1/DTD/svg11.dtd">
<svg width="100%" height="100%" viewBox="0 0 1142 484" version="1.1" xmlns="http://www.w3.org/2000/svg" xmlns:xlink="http://www.w3.org/1999/xlink" xml:space="preserve" xmlns:serif="http://www.serif.com/" style="fill-rule:evenodd;clip-rule:evenodd;stroke-linejoin:round;stroke-miterlimit:2;">
    <g transform="matrix(1,0,0,1,-1887.84,-948.669)">
        <g transform="matrix(0.964937,0,0,0.964937,1506.87,140.821)">
            <g transform="matrix(288,0,0,288,376.67,1049.46)">
                <path d="M0.679,-0L0.679,-0.127L0.19,-0.127L0.19,-0.727L0.063,-0.727L0.063,-0L0.679,-0Z" style="fill:white;fill-rule:nonzero;"/>
            </g>
            <g transform="matrix(288,0,0,288,580.286,1049.46)">
                <path d="M0.572,-0C0.779,-0 0.928,-0.16 0.928,-0.371C0.928,-0.582 0.782,-0.727 0.572,-0.727L0.395,-0.727C0.192,-0.727 0.042,-0.585 0.042,-0.371C0.042,-0.16 0.192,-0 0.395,-0L0.572,-0ZM0.395,-0.127C0.264,-0.127 0.169,-0.228 0.169,-0.365C0.169,-0.503 0.265,-0.6 0.395,-0.6L0.572,-0.6C0.706,-0.6 0.801,-0.502 0.801,-0.365C0.801,-0.228 0.706,-0.127 0.572,-0.127L0.395,-0.127Z" style="fill:white;fill-rule:nonzero;"/>
            </g>
            <g transform="matrix(288,0,0,288,859.07,1049.46)">
                <path d="M0.789,-0L0.789,-0.127L0.395,-0.127C0.264,-0.127 0.169,-0.228 0.169,-0.365C0.169,-0.503 0.265,-0.6 0.395,-0.6L0.789,-0.6L0.789,-0.727L0.395,-0.727C0.192,-0.727 0.042,-0.585 0.042,-0.371C0.042,-0.16 0.192,-0 0.395,-0L0.789,-0Z" style="fill:white;fill-rule:nonzero;"/>
            </g>
            <g transform="matrix(288,0,0,288,1097.82,1049.46)">
                <path d="M0.974,-0L0.555,-0.696C0.54,-0.721 0.522,-0.737 0.494,-0.737C0.466,-0.737 0.447,-0.721 0.432,-0.696L0.014,-0L0.159,-0L0.489,-0.558L0.651,-0.286L0.428,-0.286L0.368,-0.183L0.712,-0.183L0.821,-0L0.974,-0Z" style="fill:white;fill-rule:nonzero;"/>
            </g>
            <g transform="matrix(288,0,0,288,1382.65,1049.46)">
                <path d="M0.679,-0L0.679,-0.127L0.19,-0.127L0.19,-0.727L0.063,-0.727L0.063,-0L0.679,-0Z" style="fill:white;fill-rule:nonzero;"/>
            </g>
            <g transform="matrix(288,0,0,288,376.67,1337.46)">
                <path d="M0.775,0.003L0.775,-0.727L0.648,-0.727L0.648,-0.426L0.282,-0.426L0.282,-0.313L0.648,-0.313L0.648,0.003L0.775,0.003ZM0.19,0.003L0.19,-0.727L0.063,-0.727L0.063,0.003L0.19,0.003Z" style="fill:white;fill-rule:nonzero;"/>
            </g>
            <g transform="matrix(288,0,0,288,618.014,1337.46)">
                <path d="M0.572,-0C0.779,-0 0.928,-0.16 0.928,-0.371C0.928,-0.582 0.782,-0.727 0.572,-0.727L0.395,-0.727C0.192,-0.727 0.042,-0.585 0.042,-0.371C0.042,-0.16 0.192,-0 0.395,-0L0.572,-0ZM0.395,-0.127C0.264,-0.127 0.169,-0.228 0.169,-0.365C0.169,-0.503 0.265,-0.6 0.395,-0.6L0.572,-0.6C0.706,-0.6 0.801,-0.502 0.801,-0.365C0.801,-0.228 0.706,-0.127 0.572,-0.127L0.395,-0.127Z" style="fill:white;fill-rule:nonzero;"/>
            </g>
            <g transform="matrix(288,0,0,288,896.798,1337.46)">
                <path d="M0.608,-0C0.76,-0 0.834,-0.091 0.834,-0.213C0.834,-0.354 0.755,-0.423 0.608,-0.423L0.275,-0.423C0.219,-0.423 0.184,-0.456 0.184,-0.511C0.184,-0.566 0.218,-0.6 0.276,-0.6L0.798,-0.6L0.798,-0.727L0.276,-0.727C0.131,-0.727 0.052,-0.64 0.052,-0.523C0.052,-0.403 0.137,-0.316 0.274,-0.316L0.608,-0.316C0.676,-0.316 0.714,-0.284 0.714,-0.222C0.714,-0.165 0.676,-0.127 0.608,-0.127L0.063,-0.127L0.063,-0L0.608,-0Z" style="fill:white;fill-rule:nonzero;"/>
            </g>
            <g transform="matrix(288,0,0,288,1150.24,1337.46)">
                <path d="M0.423,-0L0.423,-0.6L0.699,-0.6L0.699,-0.727L0.02,-0.727L0.02,-0.6L0.296,-0.6L0.296,-0L0.423,-0Z" style="fill:white;fill-rule:nonzero;"/>
            </g>
        </g>
    </g>
</svg>
